<svg width="567" height="537" viewBox="0 0 567 537" fill="none" xmlns="http://www.w3.org/2000/svg">
<g filter="url(#filter0_d_827_1231)">
<rect x="118.725" y="160.878" width="425" height="310.484" rx="10" transform="rotate(5.12069 118.725 160.878)" fill="#FAFAFA"/>
<rect x="120.085" y="162.506" width="422" height="307.484" rx="8.5" transform="rotate(5.12069 120.085 162.506)" stroke="white" stroke-width="3"/>
</g>
<g clip-path="url(#clip0_827_1231)">
<path d="M436.54 316.724L456.521 317.843C462.383 309.129 466.026 299.118 467.135 288.679C453.914 301.868 431.415 297.788 414.605 305.94C409.382 308.522 404.808 312.246 401.221 316.834C397.634 321.422 395.126 326.757 393.884 332.444L385.293 343.73C394.339 346.308 403.837 346.897 413.134 345.456C422.43 344.015 431.304 340.578 439.144 335.382C443.513 332.424 447.492 328.928 450.986 324.977C443.672 321.33 436.54 316.724 436.54 316.724Z" fill="#F2F2F2"/>
<path d="M426.438 285.988L444.824 278.09C446.18 267.68 444.971 257.098 441.302 247.262C435.357 264.954 413.394 271.324 401.987 286.107C398.465 290.745 396.033 296.115 394.871 301.818C393.709 307.522 393.846 313.414 395.274 319.056L392.623 332.983C401.872 331.261 410.637 327.558 418.316 322.127C425.994 316.696 432.403 309.668 437.1 301.526C439.69 296.933 441.691 292.032 443.055 286.939C434.879 286.933 426.438 285.988 426.438 285.988Z" fill="#F2F2F2"/>
<path d="M472.472 341.404C472.482 341.505 472.472 341.608 472.443 341.705C472.413 341.803 472.365 341.894 472.3 341.972C472.236 342.051 472.156 342.116 472.066 342.164C471.976 342.212 471.877 342.242 471.776 342.252L34.7119 385.603C34.507 385.623 34.3025 385.562 34.1433 385.431C33.984 385.301 33.8832 385.113 33.8629 384.908C33.8426 384.704 33.9045 384.499 34.035 384.34C34.1656 384.181 34.354 384.08 34.5589 384.06L471.623 340.709C471.724 340.699 471.827 340.708 471.924 340.738C472.022 340.767 472.113 340.815 472.192 340.88C472.271 340.945 472.336 341.024 472.384 341.114C472.432 341.204 472.462 341.302 472.472 341.404Z" fill="#CCCCCC"/>
<path d="M211.711 334.054C288.792 326.408 345.088 257.804 337.452 180.822C329.816 103.84 261.14 47.631 184.06 55.2764C106.979 62.9218 50.6833 131.526 58.319 208.508C65.9546 285.491 134.631 341.699 211.711 334.054Z" fill="#E6E6E6"/>
<path d="M317.978 182.753C319.848 201.467 317.301 220.359 310.542 237.914C303.783 255.469 292.999 271.2 279.056 283.843C278.124 284.695 277.171 285.529 276.21 286.345C257.471 302.312 234.291 312.173 209.782 314.604C185.273 317.035 160.608 311.92 139.097 299.945C137.994 299.334 136.896 298.703 135.815 298.051C119.669 288.382 106.013 275.074 95.938 259.19C85.8632 243.307 79.6494 225.289 77.7934 206.577C75.9374 187.864 78.4905 168.976 85.2488 151.423C92.0071 133.87 102.783 118.139 116.715 105.487C117.647 104.635 118.6 103.801 119.561 102.985C138.3 87.0178 161.48 77.1568 185.989 74.7258C210.498 72.2949 235.163 77.4102 256.674 89.3853C257.777 89.9961 258.875 90.6269 259.956 91.2792C276.111 100.937 289.775 114.242 299.851 130.128C309.927 146.013 316.135 164.037 317.978 182.753Z" fill="white"/>
<path d="M208.753 304.231C269.342 298.221 313.593 244.295 307.591 183.784C301.589 123.272 247.607 79.0894 187.018 85.0991C126.429 91.1087 82.1776 145.035 88.1796 205.546C94.1815 266.058 148.164 310.241 208.753 304.231Z" fill="#194478"/>
<path opacity="0.2" d="M187.335 85.377C185.671 85.5419 184.023 85.7493 182.385 85.9856C210.354 85.6688 237.395 95.9822 258.03 114.836C278.665 133.69 291.35 159.675 293.516 187.526C295.682 215.378 287.167 243.012 269.695 264.832C252.224 286.652 227.103 301.025 199.421 305.039C202.615 304.999 205.832 304.83 209.07 304.509C238.165 301.623 264.925 287.312 283.46 264.723C301.996 242.135 310.79 213.12 307.908 184.062C305.026 155.003 290.703 128.281 268.091 109.774C245.479 91.2669 216.43 82.4911 187.335 85.377Z" fill="black"/>
<path d="M186.571 77.287C185.625 77.3825 184.755 77.8487 184.152 78.5834C183.549 79.3182 183.262 80.2615 183.354 81.2069L184.897 96.7665C184.991 97.7122 185.457 98.5819 186.193 99.1842C186.929 99.7865 187.875 100.072 188.821 99.9782C189.768 99.8842 190.639 99.4185 191.242 98.6834C191.846 97.9482 192.132 97.004 192.038 96.0583L190.495 80.4986C190.399 79.5536 189.933 78.685 189.197 78.083C188.462 77.481 187.517 77.1948 186.571 77.287Z" fill="white"/>
<path d="M259.956 91.2792C258.875 90.6269 257.777 89.9961 256.674 89.3853C256.051 89.4064 255.444 89.5895 254.913 89.9166C254.382 90.2437 253.945 90.7033 253.647 91.2503L246.152 104.976C245.697 105.811 245.592 106.791 245.86 107.703C246.129 108.614 246.749 109.382 247.585 109.836C248.42 110.291 249.402 110.395 250.314 110.127C251.227 109.858 251.995 109.238 252.451 108.404L259.946 94.6781C260.231 94.1572 260.381 93.5735 260.383 92.9798C260.385 92.3862 260.238 91.8016 259.956 91.2792Z" fill="white"/>
<path d="M305.615 145.948C305.395 145.532 305.096 145.163 304.734 144.863C304.372 144.563 303.954 144.336 303.505 144.197C303.055 144.058 302.582 144.009 302.113 144.053C301.645 144.096 301.189 144.232 300.773 144.451L286.916 151.737C286.075 152.181 285.445 152.94 285.164 153.847C284.882 154.754 284.973 155.736 285.416 156.576C285.859 157.416 286.618 158.046 287.526 158.328C288.434 158.609 289.417 158.519 290.259 158.077L304.115 150.791C304.956 150.346 305.585 149.586 305.866 148.679C306.147 147.771 306.057 146.789 305.615 145.948Z" fill="white"/>
<path d="M132.941 116.206L122.896 104.219C122.495 103.742 121.977 103.377 121.392 103.16C120.808 102.944 120.176 102.884 119.561 102.985C118.6 103.801 117.647 104.635 116.715 105.487C116.541 106.055 116.512 106.657 116.63 107.238C116.749 107.82 117.011 108.363 117.393 108.818L127.438 120.804C128.048 121.533 128.924 121.989 129.871 122.073C130.819 122.157 131.761 121.862 132.491 121.252C133.22 120.642 133.678 119.768 133.762 118.822C133.846 117.875 133.551 116.934 132.941 116.206Z" fill="white"/>
<path d="M102.156 170.063L87.1387 165.641C86.2263 165.372 85.2443 165.477 84.4087 165.931C83.5731 166.385 82.9522 167.152 82.6828 168.064C82.4133 168.975 82.5173 169.956 82.9718 170.79C83.4264 171.625 84.1942 172.245 85.1066 172.514L100.124 176.936C101.036 177.204 102.018 177.1 102.853 176.645C103.688 176.191 104.308 175.424 104.578 174.513C104.847 173.602 104.743 172.622 104.289 171.787C103.835 170.953 103.068 170.333 102.156 170.063Z" fill="white"/>
<path d="M207.599 289.287C206.652 289.383 205.783 289.849 205.18 290.584C204.577 291.319 204.29 292.262 204.382 293.207L205.925 308.767C206.019 309.713 206.485 310.582 207.221 311.185C207.957 311.787 208.902 312.073 209.849 311.979C210.796 311.885 211.667 311.419 212.27 310.684C212.874 309.949 213.16 309.004 213.066 308.059L211.523 292.499C211.427 291.554 210.961 290.685 210.225 290.083C209.49 289.481 208.545 289.195 207.599 289.287Z" fill="white"/>
<path d="M278.378 280.513L268.333 268.526C268.03 268.165 267.66 267.868 267.243 267.65C266.825 267.432 266.369 267.299 265.899 267.257C265.43 267.215 264.957 267.266 264.508 267.407C264.059 267.548 263.641 267.776 263.28 268.078C262.919 268.38 262.62 268.75 262.402 269.167C262.184 269.584 262.05 270.04 262.008 270.509C261.967 270.977 262.018 271.449 262.159 271.898C262.3 272.347 262.528 272.764 262.83 273.125L272.875 285.111C273.275 285.588 273.793 285.953 274.378 286.17C274.963 286.386 275.594 286.447 276.21 286.345C277.171 285.529 278.124 284.695 279.056 283.843C279.23 283.276 279.259 282.673 279.14 282.092C279.022 281.51 278.76 280.967 278.378 280.513Z" fill="white"/>
<path d="M310.664 216.816L295.647 212.394C294.734 212.125 293.752 212.229 292.917 212.683C292.081 213.138 291.46 213.905 291.191 214.816C290.921 215.727 291.025 216.708 291.48 217.543C291.934 218.377 292.702 218.997 293.614 219.266L308.632 223.689C309.544 223.957 310.526 223.852 311.361 223.398C312.196 222.943 312.816 222.176 313.086 221.265C313.355 220.354 313.251 219.374 312.797 218.54C312.343 217.706 311.576 217.085 310.664 216.816Z" fill="white"/>
<path d="M148.186 279.494C147.351 279.039 146.369 278.935 145.457 279.204C144.544 279.472 143.776 280.092 143.32 280.926L135.825 294.652C135.54 295.173 135.39 295.756 135.388 296.35C135.386 296.944 135.533 297.528 135.815 298.051C136.896 298.703 137.994 299.334 139.097 299.945C139.72 299.923 140.327 299.74 140.858 299.413C141.389 299.086 141.825 298.626 142.124 298.08L149.619 284.354C149.844 283.94 149.986 283.487 150.036 283.019C150.086 282.551 150.043 282.078 149.91 281.627C149.777 281.176 149.557 280.755 149.261 280.389C148.965 280.023 148.6 279.719 148.186 279.494Z" fill="white"/>
<path d="M110.354 232.749C110.134 232.333 109.835 231.965 109.473 231.664C109.111 231.364 108.693 231.138 108.244 230.999C107.794 230.86 107.321 230.811 106.852 230.854C106.384 230.898 105.928 231.033 105.512 231.252L91.6554 238.539C90.8144 238.982 90.184 239.741 89.9028 240.648C89.6215 241.555 89.7123 242.537 90.1554 243.377C90.5984 244.217 91.3573 244.847 92.2653 245.129C93.1734 245.411 94.1563 245.32 94.9981 244.879L108.854 237.592C109.695 237.147 110.324 236.387 110.605 235.48C110.886 234.572 110.796 233.59 110.354 232.749Z" fill="white"/>
<path d="M202.667 192.404C203.19 194.32 202.93 196.366 201.945 198.092C200.96 199.818 199.33 201.083 197.412 201.61L135.124 218.657C134.174 218.917 133.182 218.988 132.205 218.865C131.227 218.742 130.284 218.428 129.428 217.941C128.572 217.454 127.821 216.803 127.217 216.026C126.613 215.249 126.168 214.36 125.908 213.411C125.648 212.463 125.577 211.472 125.701 210.495C125.824 209.519 126.139 208.577 126.627 207.722C127.114 206.867 127.766 206.117 128.544 205.513C129.323 204.91 130.212 204.465 131.163 204.205L193.451 187.158C195.369 186.635 197.417 186.894 199.145 187.878C200.873 188.861 202.14 190.489 202.667 192.404Z" fill="#3F3D56"/>
<path d="M276.3 255.894C275.481 256.898 274.296 257.537 273.006 257.67C271.715 257.803 270.425 257.42 269.418 256.604L194.513 195.788C193.508 194.97 192.869 193.787 192.737 192.499C192.604 191.211 192.99 189.922 193.808 188.917C194.626 187.912 195.81 187.273 197.1 187.139C198.39 187.005 199.68 187.388 200.687 188.204L275.591 249.02C276.597 249.838 277.236 251.021 277.369 252.31C277.502 253.599 277.118 254.887 276.3 255.894Z" fill="#3F3D56"/>
<path d="M198.721 203.093C203.382 202.631 206.786 198.483 206.324 193.828C205.863 189.173 201.71 185.774 197.05 186.237C192.389 186.699 188.985 190.847 189.447 195.502C189.908 200.157 194.061 203.555 198.721 203.093Z" fill="#CCCCCC"/>
<path d="M125.263 54.2855C114.326 75.9097 95.9009 91.3682 72.4061 102.653C71.9602 103.061 71.4382 103.378 70.8699 103.584C70.3016 103.791 69.6982 103.884 69.0941 103.857C68.49 103.831 67.897 103.686 67.349 103.431C66.801 103.176 66.3087 102.815 65.9003 102.37C50.9092 86.0279 51.3959 60.4984 67.5318 45.2745C71.4334 41.5995 76.0269 38.7351 81.0456 36.8474C86.0642 34.9597 91.4081 34.0864 96.767 34.2781C102.126 34.4699 107.393 35.7229 112.262 37.9645C117.132 40.206 121.507 43.3914 125.133 47.3358L125.548 47.7878C125.956 48.233 126.273 48.7543 126.48 49.3218C126.686 49.8893 126.779 50.4919 126.753 51.0953C126.726 51.6987 126.581 52.291 126.325 52.8383C126.07 53.3857 125.708 53.8774 125.263 54.2855Z" fill="#E6E6E6"/>
<path d="M240.278 35.9148C243.059 31.3349 246.723 27.3522 251.057 24.1977C255.392 21.0433 260.31 18.78 265.527 17.5393C270.744 16.2986 276.155 16.1051 281.447 16.9701C286.738 17.8352 291.805 19.7415 296.353 22.5784C315.165 34.3359 320.657 59.2724 309.168 78.241C308.855 78.7578 308.443 79.208 307.956 79.5658C307.469 79.9237 306.916 80.1823 306.329 80.3268C305.742 80.4712 305.132 80.4988 304.534 80.4078C303.936 80.3169 303.362 80.1093 302.845 79.7968C279.359 73.3891 259.318 60.2572 241.517 42.7545C240.472 42.1234 239.721 41.1035 239.429 39.9192C239.137 38.7349 239.328 37.4832 239.96 36.4394L240.278 35.9148Z" fill="#E6E6E6"/>
<path d="M261.758 310.279C260.979 310.824 260.448 311.655 260.281 312.59C260.114 313.525 260.325 314.488 260.867 315.268L285.12 349.999C285.665 350.778 286.497 351.309 287.433 351.475C288.37 351.642 289.334 351.43 290.115 350.886C290.895 350.343 291.427 349.512 291.595 348.576C291.762 347.641 291.55 346.677 291.006 345.898L266.753 311.167C266.208 310.389 265.376 309.859 264.44 309.692C263.504 309.526 262.539 309.737 261.758 310.279Z" fill="#E6E6E6"/>
<path d="M153.245 322.426L136.288 361.244C135.907 362.115 135.889 363.101 136.237 363.986C136.584 364.87 137.27 365.58 138.142 365.96C139.014 366.34 140.001 366.358 140.887 366.011C141.772 365.664 142.484 364.979 142.864 364.108L159.822 325.29C160.011 324.859 160.112 324.395 160.121 323.924C160.13 323.454 160.046 322.986 159.874 322.548C159.702 322.11 159.445 321.71 159.118 321.371C158.791 321.032 158.401 320.761 157.969 320.573C157.537 320.385 157.072 320.283 156.601 320.275C156.13 320.266 155.662 320.35 155.223 320.522C154.784 320.694 154.384 320.951 154.045 321.278C153.705 321.604 153.434 321.994 153.245 322.426Z" fill="#E6E6E6"/>
<path d="M290.227 359.001C296.322 358.396 300.773 352.972 300.17 346.885C299.566 340.798 294.136 336.353 288.041 336.958C281.946 337.562 277.495 342.987 278.099 349.074C278.702 355.161 284.132 359.605 290.227 359.001Z" fill="#E6E6E6"/>
<path d="M270.044 76.209C276.139 75.6045 280.59 70.18 279.987 64.093C279.383 58.006 273.953 53.5616 267.858 54.1662C261.763 54.7707 257.312 60.1952 257.916 66.2822C258.519 72.3691 263.95 76.8135 270.044 76.209Z" fill="#E6E6E6"/>
<path d="M183.732 58.5823C189.827 57.9778 194.278 52.5533 193.674 46.4663C193.071 40.3793 187.64 35.9349 181.546 36.5395C175.451 37.144 171 42.5685 171.603 48.6555C172.207 54.7424 177.637 59.1868 183.732 58.5823Z" fill="#E6E6E6"/>
<path d="M106.331 91.138C112.425 90.5335 116.877 85.1089 116.273 79.022C115.669 72.935 110.239 68.4906 104.144 69.0951C98.0496 69.6996 93.5983 75.1242 94.2021 81.2111C94.8058 87.2981 100.236 91.7425 106.331 91.138Z" fill="#E6E6E6"/>
<path d="M141.573 373.745C147.667 373.141 152.119 367.716 151.515 361.629C150.911 355.542 145.481 351.098 139.386 351.703C133.292 352.307 128.84 357.732 129.444 363.819C130.048 369.906 135.478 374.35 141.573 373.745Z" fill="#E6E6E6"/>
<path d="M270.693 250.19C271.196 250.827 271.832 251.347 272.557 251.711C273.282 252.076 274.079 252.278 274.891 252.302C275.703 252.326 276.51 252.172 277.256 251.851C278.002 251.53 278.668 251.05 279.208 250.443L297.443 257.993L295.507 247.931L278.488 242.305C277.408 241.467 276.058 241.053 274.694 241.143C273.329 241.232 272.045 241.819 271.084 242.791C270.124 243.763 269.553 245.053 269.481 246.416C269.409 247.78 269.84 249.123 270.693 250.19Z" fill="#FFB7B7"/>
<path d="M283.662 252.482L289.52 242.454L323.742 254.646L363.665 242.988C365.639 242.412 367.715 242.276 369.747 242.592C371.778 242.907 373.715 243.665 375.42 244.812C377.125 245.959 378.556 247.467 379.611 249.229C380.667 250.99 381.321 252.963 381.528 255.006C381.897 258.696 380.785 262.382 378.436 265.255C376.087 268.128 372.693 269.954 368.999 270.331L322.388 275.042L283.662 252.482Z" fill="#3F3D56"/>
<path d="M289.237 415.097L282.045 412.499L288.634 382.903L299.247 386.738L289.237 415.097Z" fill="#FFB7B7"/>
<path d="M334.807 405.911C334.339 406.273 333.87 406.63 333.396 406.987C332.453 407.701 331.5 408.406 330.545 409.101C330.065 409.449 329.58 409.797 329.1 410.14L329.101 410.155L329.072 410.163L329.062 410.169L328.304 410.437L326.898 407.606L326.249 406.303L325.333 404.456L323.653 401.077L314.81 383.288L325.442 379.523L326.016 381.149L326.021 381.149L326.304 381.955L331.641 396.999L332.731 400.075L332.765 400.168L333.421 402.005L333.987 403.597L334.616 405.376L334.807 405.911Z" fill="#FFB7B7"/>
<path d="M393.379 334.55C392.798 335.727 392.202 336.9 391.599 338.063C390.48 340.229 389.322 342.368 388.126 344.481C388.126 344.486 388.121 344.486 388.117 344.492C387.379 345.324 386.547 346.067 385.637 346.706C385.6 346.74 385.556 346.765 385.519 346.794C384.848 347.256 384.122 347.634 383.359 347.919C383.083 348.017 382.803 348.116 382.527 348.215C381.533 348.558 380.545 348.864 379.559 349.145C377.805 349.639 376.063 350.041 374.322 350.356C374.182 350.385 374.042 350.409 373.902 350.434C366.737 351.678 359.628 351.524 352.157 350.856C348.468 350.53 344.69 350.076 340.778 349.604C339.5 349.446 338.216 349.294 336.918 349.143C336.82 349.132 336.717 349.117 336.614 349.107C334.759 348.889 332.874 348.679 330.945 348.479C328.516 348.227 326.013 347.997 323.417 347.802L323.954 351.375C324.38 354.122 325.225 356.788 326.46 359.279C327.865 362.354 328.977 364.787 327.677 370.211L327.051 372.836C327.631 374.052 327.921 375.385 327.898 376.731C327.875 378.078 327.54 379.4 326.919 380.596L326.769 380.88L335.92 398.644L336.513 399.795L332.766 400.167L328.157 400.629L320.346 401.404L306.835 379.938L306.188 378.914L306.183 378.858L303.043 335.342C303.02 334.958 303.012 334.567 303.024 334.179C303.057 332.419 303.441 330.682 304.152 329.071C304.864 327.46 305.89 326.007 307.171 324.796C308.397 323.627 309.843 322.713 311.426 322.107C313.008 321.501 314.696 321.216 316.39 321.267L320.297 321.383L328.281 321.619L333.904 321.788L334.017 321.792L350.601 322.284L351.302 317.382L351.511 317.28L358.154 314.073L381.132 302.98L381.19 302.953L382.702 302.224L382.918 302.507C382.983 302.593 383.047 302.678 383.107 302.763C384.932 305.385 386.485 308.186 387.74 311.123C389.837 315.916 391.659 320.825 393.196 325.825C393.264 326.042 393.324 326.24 393.377 326.418L393.398 326.472C393.421 326.556 393.437 326.61 393.444 326.625C394.22 328.857 394.114 331.685 393.379 334.55Z" fill="#2F2E41"/>
<path d="M392.799 318.456C392.692 318.141 392.563 317.823 392.431 317.516C391.392 315.192 390.226 312.927 388.937 310.732C387.487 308.231 385.782 305.567 383.781 302.698C382.813 301.309 381.777 299.867 380.673 298.373C380.12 297.624 379.547 296.862 378.954 296.087C378.93 296.051 378.905 296.016 378.878 295.983L378.707 295.755L355.429 301.248L346.76 303.293L346.669 307.717L346.651 308.812C346.646 308.813 346.646 308.813 346.651 308.817L346.591 311.804L346.591 311.809L346.509 315.754L346.468 315.753L333.265 315.359L319.658 314.954L312.349 314.738C310.654 314.686 308.967 314.971 307.384 315.577C305.801 316.183 304.355 317.097 303.129 318.266C301.849 319.477 300.824 320.931 300.112 322.542C299.4 324.153 299.016 325.889 298.983 327.65C298.972 328.007 298.978 328.372 298.998 328.731L293.788 345.519C290.67 355.559 289.087 366.011 289.092 376.522L285.681 392.958L286.398 392.953L297.076 392.886L299.896 392.871L305.158 383.29C305.758 382.198 306.319 381.079 306.833 379.94C307.679 378.078 308.406 376.165 309.009 374.211L319.181 341.261C320.227 341.335 321.262 341.402 322.287 341.461C327.027 341.754 331.566 341.926 335.905 341.977C350.013 342.149 362.108 341.072 372.734 338.685C375.719 338.018 378.591 337.245 381.35 336.366C382.363 336.047 383.36 335.712 384.342 335.362C384.573 335.283 384.8 335.205 385.026 335.121C387.057 334.378 388.869 333.137 390.296 331.514C391.723 329.89 392.719 327.935 393.194 325.827C393.769 323.383 393.632 320.825 392.799 318.456Z" fill="#2F2E41"/>
<path d="M290.966 410.2L283.185 407.381L281.964 406.937L280.556 411.685L267.848 415.829C267.22 416.034 266.673 416.433 266.288 416.97C265.904 417.507 265.701 418.152 265.709 418.812C265.718 419.472 265.937 420.112 266.336 420.638C266.735 421.164 267.291 421.549 267.925 421.737L281.131 425.651L284.802 421.63L284.295 426.588L289.269 428.063L292.857 410.887L290.966 410.2Z" fill="#2F2E41"/>
<path d="M335.92 398.644L336.514 399.795L336.039 399.843L335.92 398.644Z" fill="#2F2E41"/>
<path d="M333.478 400.355L325.961 403.82L324.781 404.363L327.125 408.726L321.013 420.6C320.71 421.187 320.603 421.855 320.708 422.506C320.812 423.158 321.123 423.759 321.594 424.222C322.065 424.685 322.672 424.985 323.326 425.078C323.98 425.172 324.647 425.055 325.229 424.743L337.373 418.242L337.149 412.807L340.282 416.685L344.857 414.237L335.306 399.514L333.478 400.355Z" fill="#2F2E41"/>
<path d="M391.582 325.946C391.12 325.991 390.653 325.923 390.223 325.749L347.023 308.388L346.356 306.494L344.852 300.442L344.859 300.383L346.981 282.009C346.894 281.862 346.719 281.624 346.522 281.354C344.485 278.576 338.287 270.121 347.189 256.75L362.919 234.279L378.117 232.109L378.313 232.311C382.902 237.022 386.253 242.793 388.071 249.11C389.888 255.428 390.114 262.096 388.729 268.522L389.983 297.347L392.262 302.967C393.596 306.27 393.792 309.923 392.819 313.35L394.139 322.686C394.193 323.068 394.168 323.458 394.067 323.831C393.967 324.204 393.792 324.553 393.553 324.858C393.315 325.162 393.017 325.415 392.678 325.602C392.34 325.789 391.967 325.906 391.582 325.946Z" fill="#3F3D56"/>
<path d="M358.298 353.121C358.953 352.641 359.495 352.024 359.885 351.313C360.276 350.602 360.506 349.813 360.558 349.004C360.611 348.195 360.485 347.384 360.19 346.628C359.895 345.872 359.437 345.191 358.85 344.631L367.042 326.69L356.907 328.275L350.681 345.069C349.804 346.117 349.343 347.45 349.385 348.815C349.427 350.18 349.968 351.482 350.907 352.475C351.846 353.467 353.117 354.081 354.479 354.2C355.841 354.32 357.2 353.935 358.298 353.121Z" fill="#FFB7B7"/>
<path d="M361.046 340.256L351.216 334.062L364.615 300.325L354.348 260.072C353.841 258.083 353.778 256.006 354.165 253.989C354.551 251.972 355.378 250.065 356.585 248.403C357.793 246.741 359.352 245.364 361.152 244.372C362.951 243.379 364.948 242.794 366.999 242.658C370.705 242.417 374.355 243.655 377.147 246.098C379.94 248.542 381.648 251.993 381.896 255.693L384.976 302.38L361.046 340.256Z" fill="#3F3D56"/>
<path d="M352.275 226.646L350.779 211.561C350.244 206.201 351.863 200.847 355.28 196.678C358.697 192.509 363.631 189.865 368.999 189.33C374.366 188.794 379.726 190.409 383.9 193.821C388.073 197.232 390.719 202.16 391.254 207.521L391.256 207.547C395.56 214.616 393.678 218.367 392.752 222.631C392.823 223.35 392.604 224.068 392.145 224.628C391.686 225.187 391.024 225.542 390.304 225.614L355.263 229.09C354.543 229.161 353.824 228.943 353.263 228.485C352.703 228.027 352.348 227.365 352.275 226.646Z" fill="#2F2E41"/>
<path d="M366.05 227.03C374.417 226.2 380.528 218.754 379.699 210.398C378.87 202.042 371.416 195.94 363.049 196.77C354.682 197.6 348.572 205.047 349.4 213.403C350.229 221.759 357.684 227.86 366.05 227.03Z" fill="#FFB7B7"/>
<path d="M380.797 214.294C380.658 214.286 380.518 214.271 380.378 214.263C377.974 214.078 375.57 213.901 373.172 213.709L372.426 208.397L370.045 213.458C363.748 216.262 357.536 215.646 351.538 213.523C349.559 212.814 347.625 211.986 345.746 211.044C345.935 208.046 346.792 205.128 348.255 202.504C349.718 199.88 351.751 197.615 354.203 195.876C354.407 195.732 354.606 195.603 354.812 195.473L354.815 195.472L354.817 195.47L354.818 195.468L354.819 195.465C355.17 195.255 355.529 195.052 355.89 194.863C358.718 193.423 361.897 192.814 365.057 193.107C368.218 193.4 371.23 194.583 373.743 196.518C378.806 200.469 381.609 207.545 380.797 214.294Z" fill="#2F2E41"/>
</g>
<defs>
<filter id="filter0_d_827_1231" x="66.7655" y="140.63" width="499.512" height="395.674" filterUnits="userSpaceOnUse" color-interpolation-filters="sRGB">
<feFlood flood-opacity="0" result="BackgroundImageFix"/>
<feColorMatrix in="SourceAlpha" type="matrix" values="0 0 0 0 0 0 0 0 0 0 0 0 0 0 0 0 0 0 127 0" result="hardAlpha"/>
<feMorphology radius="11" operator="erode" in="SourceAlpha" result="effect1_dropShadow_827_1231"/>
<feOffset dy="4"/>
<feGaussianBlur stdDeviation="18.05"/>
<feComposite in2="hardAlpha" operator="out"/>
<feColorMatrix type="matrix" values="0 0 0 0 0 0 0 0 0 0 0 0 0 0 0 0 0 0 0.25 0"/>
<feBlend mode="normal" in2="BackgroundImageFix" result="effect1_dropShadow_827_1231"/>
<feBlend mode="normal" in="SourceGraphic" in2="effect1_dropShadow_827_1231" result="shape"/>
</filter>
<clipPath id="clip0_827_1231">
<rect width="440.761" height="411.714" fill="white" transform="translate(0 43.5044) rotate(-5.66448)"/>
</clipPath>
</defs>
</svg>
