<svg width="607" height="509" viewBox="0 0 607 509" fill="none" xmlns="http://www.w3.org/2000/svg">
<g filter="url(#filter0_d_827_1233)">
<rect x="48.0034" y="139" width="425" height="310.484" rx="10" transform="rotate(4.24887 48.0034 139)" fill="#FAFAFA"/>
<rect x="49.3882" y="140.607" width="422" height="307.484" rx="8.5" transform="rotate(4.24887 49.3882 140.607)" stroke="white" stroke-width="3"/>
</g>
<path d="M164.594 386.032C164.948 386.579 165.326 387.118 165.737 387.642H164.022C163.643 387.118 163.289 386.579 162.943 386.032C160.265 381.808 158.41 377.115 157.477 372.201C155.98 364.047 157.148 355.626 160.81 348.188C161.829 346.103 163.031 344.112 164.4 342.239C164.891 342.343 165.366 342.464 165.841 342.609C162.235 347.385 159.81 352.946 158.765 358.838C157.433 366.595 158.585 374.574 162.057 381.636C162.797 383.16 163.645 384.629 164.594 386.032Z" fill="white"/>
<path d="M605.642 24.3696H436.642C436.376 24.3696 436.122 24.2643 435.934 24.0767C435.747 23.8892 435.642 23.6348 435.642 23.3696C435.642 23.1044 435.747 22.85 435.934 22.6625C436.122 22.475 436.376 22.3696 436.642 22.3696H605.642C605.907 22.3696 606.161 22.475 606.349 22.6625C606.536 22.85 606.642 23.1044 606.642 23.3696C606.642 23.6348 606.536 23.8892 606.349 24.0767C606.161 24.2643 605.907 24.3696 605.642 24.3696Z" fill="#3F3D56"/>
<path d="M550.642 8H493.642C492.581 8 491.563 7.57858 490.813 6.82843C490.063 6.07828 489.642 5.06087 489.642 4C489.642 2.93913 490.063 1.92172 490.813 1.17157C491.563 0.421424 492.581 0 493.642 0H550.642C551.702 0 552.72 0.421424 553.47 1.17157C554.22 1.92172 554.642 2.93913 554.642 4C554.642 5.06087 554.22 6.07828 553.47 6.82843C552.72 7.57858 551.702 8 550.642 8Z" fill="#CCCCCC"/>
<path d="M491.007 197.894C490.599 197.379 490.315 196.777 490.175 196.135C490.035 195.493 490.043 194.828 490.199 194.189C493.929 178.567 493.929 162.286 490.199 146.664C490.043 146.026 490.035 145.36 490.175 144.718C490.315 144.076 490.599 143.475 491.007 142.959C491.406 142.451 491.915 142.04 492.497 141.758C493.078 141.477 493.716 141.331 494.362 141.333H534.234C535.253 141.335 536.238 141.699 537.014 142.359C537.79 143.019 538.307 143.934 538.471 144.939C541.072 161.831 541.072 179.022 538.471 195.914C538.307 196.92 537.79 197.834 537.014 198.494C536.238 199.155 535.253 199.518 534.234 199.52H494.362C493.716 199.522 493.078 199.377 492.497 199.095C491.915 198.813 491.406 198.403 491.007 197.894Z" fill="#E6E6E6"/>
<path d="M545.437 129.314C542.837 112.422 542.837 95.2314 545.437 78.3391C545.602 77.3337 546.119 76.4195 546.895 75.7591C547.67 75.0988 548.655 74.7353 549.674 74.7334H589.547C590.193 74.7314 590.831 74.8768 591.412 75.1586C591.994 75.4404 592.503 75.8512 592.902 76.3597C593.31 76.8751 593.594 77.4767 593.734 78.1186C593.874 78.7606 593.866 79.426 593.709 80.0642C589.98 95.6864 589.98 111.967 593.709 127.589C593.865 128.228 593.874 128.893 593.734 129.535C593.594 130.177 593.31 130.779 592.902 131.294C592.503 131.802 591.994 132.213 591.412 132.495C590.831 132.777 590.193 132.922 589.547 132.92H549.674C548.655 132.918 547.67 132.555 546.895 131.894C546.119 131.234 545.602 130.32 545.437 129.314Z" fill="#194478"/>
<path d="M455.376 114.206C454.962 113.682 454.673 113.071 454.53 112.418C454.388 111.766 454.397 111.089 454.555 110.44C458.347 94.5615 458.347 78.0132 454.555 62.1344C454.397 61.4856 454.388 60.8091 454.53 60.1565C454.673 59.504 454.962 58.8924 455.376 58.3684C455.782 57.8518 456.299 57.4344 456.89 57.1481C457.481 56.8618 458.13 56.714 458.787 56.7161H499.314C500.349 56.718 501.351 57.0875 502.139 57.7586C502.928 58.4298 503.453 59.3591 503.62 60.381C506.264 77.5508 506.264 95.024 503.62 112.194C503.453 113.216 502.928 114.145 502.139 114.816C501.351 115.487 500.349 115.857 499.314 115.859H458.787C458.13 115.861 457.481 115.713 456.89 115.427C456.299 115.14 455.781 114.723 455.376 114.206Z" fill="#194478"/>
<path d="M491.493 78.5378H470.144C469.349 78.537 468.586 78.2206 468.024 77.6582C467.461 77.0958 467.145 76.3332 467.144 75.5378V74.2639C467.145 73.4685 467.461 72.706 468.024 72.1436C468.586 71.5811 469.349 71.2648 470.144 71.2639H491.493C492.289 71.2648 493.051 71.5811 493.614 72.1436C494.176 72.706 494.493 73.4685 494.493 74.2639V75.5378C494.493 76.3332 494.176 77.0958 493.614 77.6582C493.051 78.2206 492.289 78.537 491.493 78.5378Z" fill="white"/>
<path d="M491.493 91.0852H470.144C469.349 91.0843 468.586 90.768 468.024 90.2056C467.461 89.6431 467.145 88.8806 467.144 88.0852V86.8113C467.145 86.0159 467.461 85.2533 468.024 84.6909C468.586 84.1285 469.349 83.8121 470.144 83.8113H491.493C492.289 83.8121 493.051 84.1285 493.614 84.6909C494.176 85.2533 494.493 86.0159 494.493 86.8113V88.0852C494.493 88.8806 494.176 89.6431 493.614 90.2056C493.051 90.768 492.289 91.0843 491.493 91.0852Z" fill="white"/>
<path d="M526.033 160.76H505.11C504.314 160.759 503.552 160.442 502.99 159.88C502.427 159.317 502.111 158.555 502.11 157.76V156.587C502.111 155.792 502.427 155.029 502.99 154.467C503.552 153.904 504.314 153.588 505.11 153.587H526.033C526.829 153.588 527.591 153.904 528.154 154.467C528.716 155.029 529.032 155.792 529.033 156.587V157.76C529.032 158.555 528.716 159.317 528.154 159.88C527.591 160.442 526.829 160.759 526.033 160.76Z" fill="white"/>
<path d="M526.033 175.573H505.11C504.314 175.572 503.552 175.256 502.99 174.693C502.427 174.131 502.111 173.368 502.11 172.573V171.401C502.111 170.605 502.427 169.843 502.99 169.28C503.552 168.718 504.314 168.402 505.11 168.401H526.033C526.829 168.402 527.591 168.718 528.154 169.28C528.716 169.843 529.032 170.605 529.033 171.401V172.573C529.032 173.368 528.716 174.131 528.154 174.693C527.591 175.256 526.829 175.572 526.033 175.573Z" fill="white"/>
<path d="M526.033 190.386H505.11C504.314 190.386 503.552 190.069 502.99 189.507C502.427 188.944 502.111 188.182 502.11 187.386V186.214C502.111 185.419 502.427 184.656 502.99 184.094C503.552 183.531 504.314 183.215 505.11 183.214H526.033C526.829 183.215 527.591 183.531 528.154 184.094C528.716 184.656 529.032 185.419 529.033 186.214V187.386C529.032 188.182 528.716 188.944 528.154 189.507C527.591 190.069 526.829 190.386 526.033 190.386Z" fill="white"/>
<path d="M578.005 100.645H557.081C556.286 100.644 555.523 100.328 554.961 99.7651C554.398 99.2027 554.082 98.4402 554.081 97.6448V96.4724C554.082 95.677 554.398 94.9145 554.961 94.3521C555.523 93.7896 556.286 93.4733 557.081 93.4724H578.005C578.8 93.4733 579.563 93.7896 580.125 94.3521C580.687 94.9145 581.004 95.677 581.005 96.4724V97.6448C581.004 98.4402 580.687 99.2027 580.125 99.7651C579.563 100.328 578.8 100.644 578.005 100.645Z" fill="white"/>
<path d="M213.736 286.928V288.928C213.739 292.242 215.057 295.42 217.4 297.763C219.744 300.107 222.922 301.425 226.236 301.428H316.236C319.551 301.427 322.729 300.109 325.073 297.765C327.417 295.421 328.735 292.243 328.736 288.928V286.928C328.742 284.003 327.715 281.169 325.835 278.928C325.21 278.183 324.502 277.513 323.726 276.928C323.726 276.928 274.246 275.808 274.246 274.428H226.236C222.922 274.432 219.745 275.751 217.402 278.094C215.059 280.437 213.74 283.614 213.736 286.928Z" fill="#CCCCCC"/>
<path d="M278.459 300.931H265.459V384.931H278.459V300.931Z" fill="#CCCCCC"/>
<path d="M315.459 384.474C315.459 385.879 295.76 385.018 271.459 385.018C247.159 385.018 227.459 385.879 227.459 384.474C227.459 383.07 247.159 371.931 271.459 371.931C295.76 371.931 315.459 383.07 315.459 384.474Z" fill="#CCCCCC"/>
<path d="M297.586 285.231C298.525 283.972 299.176 282.522 299.493 280.984C299.811 279.446 299.787 277.857 299.424 276.329C299.062 274.801 298.368 273.372 297.393 272.141C296.417 270.91 295.184 269.907 293.779 269.205L266.227 175.32L245.246 185.595L278.927 274.65C277.902 277.088 277.808 279.817 278.661 282.319C279.515 284.822 281.257 286.925 283.557 288.229C285.857 289.533 288.555 289.949 291.141 289.396C293.727 288.844 296.02 287.362 297.586 285.231Z" fill="#A0616A"/>
<path d="M272.469 190.999L248.986 197.355C248.318 197.536 247.619 197.571 246.936 197.457C246.253 197.343 245.603 197.084 245.029 196.696C244.456 196.308 243.973 195.802 243.613 195.21C243.253 194.619 243.025 193.957 242.944 193.27L240.106 169.182C239.199 165.759 239.688 162.115 241.464 159.051C243.24 155.987 246.159 153.752 249.58 152.837C253.001 151.921 256.646 152.4 259.715 154.168C262.784 155.936 265.026 158.848 265.951 162.267L275.625 184.423C275.902 185.057 276.039 185.744 276.026 186.436C276.014 187.128 275.852 187.809 275.553 188.433C275.253 189.057 274.822 189.61 274.29 190.052C273.758 190.495 273.137 190.818 272.469 190.999Z" fill="#194478"/>
<path d="M303.724 374.629L315.983 374.628L321.816 342.832H303.722L303.724 374.629Z" fill="#A0616A"/>
<path d="M300.596 370.626L324.74 370.625C326.761 370.625 328.762 371.023 330.629 371.796C332.496 372.57 334.192 373.703 335.621 375.132C337.05 376.56 338.183 378.257 338.956 380.123C339.73 381.99 340.128 383.991 340.128 386.012V386.512L300.597 386.513L300.596 370.626Z" fill="#2F2E41"/>
<path d="M317.954 357.578C317.812 357.578 317.668 357.571 317.524 357.558L300.558 356.322C299.871 356.259 299.209 356.038 298.622 355.678C298.034 355.318 297.537 354.828 297.169 354.245C296.801 353.663 296.572 353.003 296.499 352.318C296.426 351.633 296.511 350.94 296.748 350.293L319.455 299.278C319.617 298.824 319.683 298.34 319.65 297.858C319.616 297.377 319.483 296.907 319.259 296.48C319.035 296.047 318.722 295.666 318.341 295.363C317.96 295.06 317.519 294.84 317.047 294.72C306.37 291.929 278.975 284.497 255.261 275.802C245.101 272.076 238.702 266.692 236.242 259.8C232.999 250.713 237.797 242.426 238.003 242.078L238.164 241.806L260.478 243.834L284.669 245.892L337.683 274.319C342.125 276.722 345.499 280.709 347.133 285.487C348.768 290.266 348.542 295.484 346.502 300.104L322.061 354.911C321.707 355.705 321.131 356.379 320.402 356.853C319.674 357.326 318.823 357.578 317.954 357.578Z" fill="#2F2E41"/>
<path d="M264.358 142.905C277.923 142.905 288.919 131.909 288.919 118.344C288.919 104.779 277.923 93.783 264.358 93.783C250.793 93.783 239.797 104.779 239.797 118.344C239.797 131.909 250.793 142.905 264.358 142.905Z" fill="#A0616A"/>
<path d="M296.724 373.629L308.983 373.628L314.816 341.832H296.722L296.724 373.629Z" fill="#A0616A"/>
<path d="M293.596 369.626L317.74 369.625C319.761 369.625 321.762 370.023 323.629 370.796C325.496 371.57 327.192 372.703 328.621 374.132C330.05 375.56 331.183 377.257 331.956 379.123C332.73 380.99 333.128 382.991 333.128 385.012V385.512L293.597 385.513L293.596 369.626Z" fill="#2F2E41"/>
<path d="M310.954 360.578C310.812 360.578 310.668 360.571 310.524 360.558L293.558 359.322C292.871 359.259 292.209 359.038 291.622 358.678C291.034 358.318 290.537 357.828 290.169 357.245C289.801 356.663 289.572 356.003 289.499 355.318C289.426 354.633 289.511 353.94 289.748 353.293L312.455 302.278C312.617 301.824 312.683 301.34 312.65 300.858C312.616 300.377 312.483 299.907 312.259 299.48C312.035 299.047 311.722 298.666 311.341 298.363C310.96 298.06 310.519 297.84 310.047 297.72C299.37 294.929 271.975 287.497 248.261 278.802C238.101 275.076 231.702 269.692 229.242 262.8C225.999 253.713 230.797 245.426 231.003 245.078L231.164 244.806L253.478 246.834L277.669 248.892L330.683 277.319C335.125 279.722 338.499 283.709 340.133 288.487C341.768 293.266 341.542 298.484 339.502 303.104L315.061 357.911C314.707 358.705 314.131 359.379 313.402 359.853C312.674 360.326 311.823 360.578 310.954 360.578Z" fill="#2F2E41"/>
<path d="M271.933 156.832L245.933 147.832C245.933 147.832 229.611 160.372 237.452 191.481C241.546 207.534 240.353 224.479 234.052 239.801C233.293 241.697 232.419 243.544 231.433 245.332C231.433 245.332 260.433 280.332 287.433 254.332L276.933 203.832C276.933 203.832 293.433 170.332 271.933 156.832Z" fill="#194478"/>
<path d="M267.408 143.74C263.912 138.508 261.153 131.253 265.002 126.274C268.801 121.36 276.294 122.084 282.113 119.91C290.217 116.881 294.917 107.36 293.451 98.8341C291.985 90.3078 285.14 83.2397 276.987 80.3476C268.833 77.4556 259.638 78.3962 251.654 81.7265C241.824 85.8262 233.392 93.7568 229.857 103.803C226.321 113.849 228.211 125.911 235.546 133.632C243.41 141.911 255.752 144.117 267.169 143.983" fill="#2F2E41"/>
<path d="M244.56 99.1077C240.156 102.694 233.435 101.101 228.707 97.9538C223.979 94.8068 220.142 90.3256 215.026 87.8582C206.007 83.5082 195.102 86.3999 186.324 91.2183C177.546 96.0366 169.765 102.693 160.493 106.474C151.221 110.256 139.389 110.443 132.368 103.303C130.64 108.309 130.499 113.726 131.964 118.815C133.428 123.904 136.427 128.417 140.552 131.739C144.676 135.06 149.725 137.029 155.009 137.375C160.293 137.722 165.556 136.429 170.078 133.674C180.238 127.486 185.849 114.511 197.244 111.095C203.55 109.205 210.32 110.727 216.693 112.376C223.066 114.025 229.711 115.806 236.142 114.403C242.574 112.999 248.589 107.22 247.771 100.688L244.56 99.1077Z" fill="#2F2E41"/>
<path d="M324.514 328.535C321.914 311.642 321.914 294.452 324.514 277.559C324.679 276.554 325.196 275.64 325.972 274.98C326.748 274.319 327.733 273.956 328.751 273.954H368.624C369.27 273.952 369.908 274.097 370.49 274.379C371.071 274.661 371.581 275.071 371.979 275.58C372.387 276.095 372.671 276.697 372.811 277.339C372.951 277.981 372.943 278.646 372.787 279.284C369.057 294.907 369.057 311.187 372.786 326.81C372.943 327.448 372.951 328.113 372.811 328.755C372.671 329.397 372.387 329.999 371.979 330.514C371.581 331.023 371.071 331.433 370.49 331.715C369.908 331.997 369.27 332.142 368.624 332.14H328.751C327.733 332.138 326.748 331.775 325.972 331.115C325.196 330.454 324.679 329.54 324.514 328.535Z" fill="#FF6584"/>
<path d="M356.354 298.63H335.43C334.635 298.629 333.872 298.313 333.31 297.75C332.747 297.188 332.431 296.426 332.43 295.63V294.458C332.431 293.663 332.747 292.9 333.31 292.338C333.872 291.775 334.635 291.459 335.43 291.458H356.354C357.149 291.459 357.912 291.775 358.474 292.338C359.037 292.9 359.353 293.663 359.354 294.458V295.63C359.353 296.426 359.037 297.188 358.474 297.75C357.912 298.313 357.149 298.629 356.354 298.63Z" fill="white"/>
<path d="M356.354 310.975H335.43C334.635 310.974 333.872 310.658 333.31 310.095C332.747 309.533 332.431 308.77 332.43 307.975V306.802C332.431 306.007 332.747 305.245 333.31 304.682C333.872 304.12 334.635 303.803 335.43 303.802H356.354C357.149 303.803 357.912 304.12 358.474 304.682C359.037 305.245 359.353 306.007 359.354 306.802V307.975C359.353 308.77 359.037 309.533 358.474 310.095C357.912 310.658 357.149 310.974 356.354 310.975Z" fill="white"/>
<path d="M334.999 280.732C335.593 279.278 335.862 277.712 335.785 276.143C335.708 274.575 335.288 273.042 334.555 271.653C333.822 270.264 332.793 269.053 331.541 268.105C330.289 267.157 328.844 266.494 327.309 266.165L277.174 182.141L259.425 197.333L314.288 275.148C313.905 277.765 314.495 280.431 315.947 282.641C317.399 284.851 319.61 286.452 322.163 287.14C324.716 287.828 327.433 287.556 329.799 286.375C332.165 285.194 334.015 283.186 334.999 280.732Z" fill="#A0616A"/>
<path d="M287.135 195.763L265.985 207.785C265.384 208.127 264.715 208.335 264.026 208.396C263.336 208.456 262.642 208.367 261.99 208.135C261.337 207.903 260.743 207.533 260.247 207.051C259.751 206.568 259.364 205.984 259.114 205.339L250.348 182.724C248.616 179.636 248.179 175.986 249.134 172.576C250.088 169.166 252.356 166.274 255.439 164.533C258.523 162.792 262.171 162.345 265.584 163.289C268.997 164.233 271.896 166.493 273.646 169.571L288.548 188.607C288.975 189.152 289.279 189.783 289.44 190.456C289.601 191.13 289.614 191.83 289.48 192.509C289.346 193.188 289.067 193.83 288.662 194.392C288.258 194.953 287.737 195.421 287.135 195.763Z" fill="#194478"/>
<defs>
<filter id="filter0_d_827_1233" x="0.612892" y="118.613" width="495.61" height="389.893" filterUnits="userSpaceOnUse" color-interpolation-filters="sRGB">
<feFlood flood-opacity="0" result="BackgroundImageFix"/>
<feColorMatrix in="SourceAlpha" type="matrix" values="0 0 0 0 0 0 0 0 0 0 0 0 0 0 0 0 0 0 127 0" result="hardAlpha"/>
<feMorphology radius="11" operator="erode" in="SourceAlpha" result="effect1_dropShadow_827_1233"/>
<feOffset dy="4"/>
<feGaussianBlur stdDeviation="18.05"/>
<feComposite in2="hardAlpha" operator="out"/>
<feColorMatrix type="matrix" values="0 0 0 0 0 0 0 0 0 0 0 0 0 0 0 0 0 0 0.25 0"/>
<feBlend mode="normal" in2="BackgroundImageFix" result="effect1_dropShadow_827_1233"/>
<feBlend mode="normal" in="SourceGraphic" in2="effect1_dropShadow_827_1233" result="shape"/>
</filter>
</defs>
</svg>
